<?xml version="1.0" encoding="us-ascii" standalone="no"?><svg xmlns="http://www.w3.org/2000/svg" xmlns:xlink="http://www.w3.org/1999/xlink" contentStyleType="text/css" height="549px" preserveAspectRatio="none" style="width:887px;height:549px;background:#FFFFFF;" version="1.1" viewBox="0 0 887 549" width="887px" zoomAndPan="magnify"><defs/><g><!--class DataBaseManager--><g id="elem_DataBaseManager"><rect codeLine="1" fill="#F1F1F1" height="80.5938" id="DataBaseManager" rx="2.5" ry="2.5" style="stroke:#181818;stroke-width:0.5;" width="247" x="143" y="180"/><ellipse cx="197.75" cy="196" fill="#ADD1B2" rx="11" ry="11" style="stroke:#181818;stroke-width:1.0;"/><path d="M200.0938,191.6719 C199.1563,191.2344 198.5625,191.0938 197.6875,191.0938 C195.0625,191.0938 193.0625,193.1719 193.0625,195.8906 L193.0625,197.0156 C193.0625,199.5938 195.1719,201.4844 198.0625,201.4844 C199.2813,201.4844 200.4375,201.1875 201.1875,200.6406 C201.7656,200.2344 202.0938,199.7813 202.0938,199.3906 C202.0938,198.9375 201.7031,198.5469 201.2344,198.5469 C201.0156,198.5469 200.8125,198.625 200.625,198.8125 C200.1719,199.2969 200.1719,199.2969 199.9844,199.3906 C199.5625,199.6563 198.875,199.7813 198.1094,199.7813 C196.0625,199.7813 194.7656,198.6875 194.7656,196.9844 L194.7656,195.8906 C194.7656,194.1094 196.0156,192.7969 197.75,192.7969 C198.3281,192.7969 198.9375,192.9531 199.4063,193.2031 C199.8906,193.4844 200.0625,193.7031 200.1563,194.1094 C200.2188,194.5156 200.25,194.6406 200.3906,194.7656 C200.5313,194.9063 200.7656,195.0156 200.9844,195.0156 C201.25,195.0156 201.5156,194.875 201.6875,194.6563 C201.7969,194.5 201.8281,194.3125 201.8281,193.8906 L201.8281,192.4688 C201.8281,192.0313 201.8125,191.9063 201.7188,191.75 C201.5625,191.4844 201.2813,191.3438 200.9844,191.3438 C200.6875,191.3438 200.4844,191.4375 200.2656,191.75 L200.0938,191.6719 Z " fill="#000000"/><text fill="#000000" font-family="sans-serif" font-size="14" lengthAdjust="spacing" textLength="129" x="218.25" y="200.8467">DataBaseManager</text><line style="stroke:#181818;stroke-width:0.5;" x1="144" x2="389" y1="212" y2="212"/><rect fill="none" height="6" style="stroke:#C82930;stroke-width:1.0;" width="6" x="151" y="222.6484"/><text fill="#000000" font-family="sans-serif" font-size="14" lengthAdjust="spacing" textLength="159" x="163" y="228.9951">connection_string: str</text><line style="stroke:#181818;stroke-width:0.5;" x1="144" x2="389" y1="236.2969" y2="236.2969"/><ellipse cx="154" cy="249.9453" fill="#84BE84" rx="3" ry="3" style="stroke:#038048;stroke-width:1.0;"/><text fill="#000000" font-family="sans-serif" font-size="14" lengthAdjust="spacing" textLength="221" x="163" y="253.292">__init__(connection_string: str)</text></g><!--class Authenticator--><g id="elem_Authenticator"><rect codeLine="6" fill="#F1F1F1" height="80.5938" id="Authenticator" rx="2.5" ry="2.5" style="stroke:#181818;stroke-width:0.5;" width="329" x="132" y="321"/><ellipse cx="241.75" cy="337" fill="#ADD1B2" rx="11" ry="11" style="stroke:#181818;stroke-width:1.0;"/><path d="M244.0938,332.6719 C243.1563,332.2344 242.5625,332.0938 241.6875,332.0938 C239.0625,332.0938 237.0625,334.1719 237.0625,336.8906 L237.0625,338.0156 C237.0625,340.5938 239.1719,342.4844 242.0625,342.4844 C243.2813,342.4844 244.4375,342.1875 245.1875,341.6406 C245.7656,341.2344 246.0938,340.7813 246.0938,340.3906 C246.0938,339.9375 245.7031,339.5469 245.2344,339.5469 C245.0156,339.5469 244.8125,339.625 244.625,339.8125 C244.1719,340.2969 244.1719,340.2969 243.9844,340.3906 C243.5625,340.6563 242.875,340.7813 242.1094,340.7813 C240.0625,340.7813 238.7656,339.6875 238.7656,337.9844 L238.7656,336.8906 C238.7656,335.1094 240.0156,333.7969 241.75,333.7969 C242.3281,333.7969 242.9375,333.9531 243.4063,334.2031 C243.8906,334.4844 244.0625,334.7031 244.1563,335.1094 C244.2188,335.5156 244.25,335.6406 244.3906,335.7656 C244.5313,335.9063 244.7656,336.0156 244.9844,336.0156 C245.25,336.0156 245.5156,335.875 245.6875,335.6563 C245.7969,335.5 245.8281,335.3125 245.8281,334.8906 L245.8281,333.4688 C245.8281,333.0313 245.8125,332.9063 245.7188,332.75 C245.5625,332.4844 245.2813,332.3438 244.9844,332.3438 C244.6875,332.3438 244.4844,332.4375 244.2656,332.75 L244.0938,332.6719 Z " fill="#000000"/><text fill="#000000" font-family="sans-serif" font-size="14" lengthAdjust="spacing" textLength="101" x="262.25" y="341.8467">Authenticator</text><line style="stroke:#181818;stroke-width:0.5;" x1="133" x2="460" y1="353" y2="353"/><rect fill="none" height="6" style="stroke:#C82930;stroke-width:1.0;" width="6" x="140" y="363.6484"/><text fill="#000000" font-family="sans-serif" font-size="14" lengthAdjust="spacing" textLength="241" x="152" y="369.9951">user_database: DataBaseManager</text><line style="stroke:#181818;stroke-width:0.5;" x1="133" x2="460" y1="377.2969" y2="377.2969"/><ellipse cx="143" cy="390.9453" fill="#84BE84" rx="3" ry="3" style="stroke:#038048;stroke-width:1.0;"/><text fill="#000000" font-family="sans-serif" font-size="14" lengthAdjust="spacing" textLength="303" x="152" y="394.292">__init__(user_database: DataBaseManager)</text></g><!--class PaymentProcessor--><g id="elem_PaymentProcessor"><rect codeLine="11" fill="#F1F1F1" height="80.5938" id="PaymentProcessor" rx="2.5" ry="2.5" style="stroke:#181818;stroke-width:0.5;" width="172" x="319.5" y="462"/><ellipse cx="337.2" cy="478" fill="#ADD1B2" rx="11" ry="11" style="stroke:#181818;stroke-width:1.0;"/><path d="M339.5438,473.6719 C338.6063,473.2344 338.0125,473.0938 337.1375,473.0938 C334.5125,473.0938 332.5125,475.1719 332.5125,477.8906 L332.5125,479.0156 C332.5125,481.5938 334.6219,483.4844 337.5125,483.4844 C338.7313,483.4844 339.8875,483.1875 340.6375,482.6406 C341.2156,482.2344 341.5438,481.7813 341.5438,481.3906 C341.5438,480.9375 341.1531,480.5469 340.6844,480.5469 C340.4656,480.5469 340.2625,480.625 340.075,480.8125 C339.6219,481.2969 339.6219,481.2969 339.4344,481.3906 C339.0125,481.6563 338.325,481.7813 337.5594,481.7813 C335.5125,481.7813 334.2156,480.6875 334.2156,478.9844 L334.2156,477.8906 C334.2156,476.1094 335.4656,474.7969 337.2,474.7969 C337.7781,474.7969 338.3875,474.9531 338.8563,475.2031 C339.3406,475.4844 339.5125,475.7031 339.6063,476.1094 C339.6688,476.5156 339.7,476.6406 339.8406,476.7656 C339.9813,476.9063 340.2156,477.0156 340.4344,477.0156 C340.7,477.0156 340.9656,476.875 341.1375,476.6563 C341.2469,476.5 341.2781,476.3125 341.2781,475.8906 L341.2781,474.4688 C341.2781,474.0313 341.2625,473.9063 341.1688,473.75 C341.0125,473.4844 340.7313,473.3438 340.4344,473.3438 C340.1375,473.3438 339.9344,473.4375 339.7156,473.75 L339.5438,473.6719 Z " fill="#000000"/><text fill="#000000" font-family="sans-serif" font-size="14" lengthAdjust="spacing" textLength="134" x="351.8" y="482.8467">PaymentProcessor</text><line style="stroke:#181818;stroke-width:0.5;" x1="320.5" x2="490.5" y1="494" y2="494"/><rect fill="none" height="6" style="stroke:#C82930;stroke-width:1.0;" width="6" x="327.5" y="504.6484"/><text fill="#000000" font-family="sans-serif" font-size="14" lengthAdjust="spacing" textLength="84" x="339.5" y="510.9951">api_key: str</text><line style="stroke:#181818;stroke-width:0.5;" x1="320.5" x2="490.5" y1="518.2969" y2="518.2969"/><ellipse cx="330.5" cy="531.9453" fill="#84BE84" rx="3" ry="3" style="stroke:#038048;stroke-width:1.0;"/><text fill="#000000" font-family="sans-serif" font-size="14" lengthAdjust="spacing" textLength="146" x="339.5" y="535.292">__init__(api_key: str)</text></g><!--class OrderManager--><g id="elem_OrderManager"><rect codeLine="16" fill="#F1F1F1" height="113.1875" id="OrderManager" rx="2.5" ry="2.5" style="stroke:#181818;stroke-width:0.5;" width="873" x="7" y="7"/><ellipse cx="388.25" cy="23" fill="#ADD1B2" rx="11" ry="11" style="stroke:#181818;stroke-width:1.0;"/><path d="M390.5938,18.6719 C389.6563,18.2344 389.0625,18.0938 388.1875,18.0938 C385.5625,18.0938 383.5625,20.1719 383.5625,22.8906 L383.5625,24.0156 C383.5625,26.5938 385.6719,28.4844 388.5625,28.4844 C389.7813,28.4844 390.9375,28.1875 391.6875,27.6406 C392.2656,27.2344 392.5938,26.7813 392.5938,26.3906 C392.5938,25.9375 392.2031,25.5469 391.7344,25.5469 C391.5156,25.5469 391.3125,25.625 391.125,25.8125 C390.6719,26.2969 390.6719,26.2969 390.4844,26.3906 C390.0625,26.6563 389.375,26.7813 388.6094,26.7813 C386.5625,26.7813 385.2656,25.6875 385.2656,23.9844 L385.2656,22.8906 C385.2656,21.1094 386.5156,19.7969 388.25,19.7969 C388.8281,19.7969 389.4375,19.9531 389.9063,20.2031 C390.3906,20.4844 390.5625,20.7031 390.6563,21.1094 C390.7188,21.5156 390.75,21.6406 390.8906,21.7656 C391.0313,21.9063 391.2656,22.0156 391.4844,22.0156 C391.75,22.0156 392.0156,21.875 392.1875,21.6563 C392.2969,21.5 392.3281,21.3125 392.3281,20.8906 L392.3281,19.4688 C392.3281,19.0313 392.3125,18.9063 392.2188,18.75 C392.0625,18.4844 391.7813,18.3438 391.4844,18.3438 C391.1875,18.3438 390.9844,18.4375 390.7656,18.75 L390.5938,18.6719 Z " fill="#000000"/><text fill="#000000" font-family="sans-serif" font-size="14" lengthAdjust="spacing" textLength="102" x="408.75" y="27.8467">OrderManager</text><line style="stroke:#181818;stroke-width:0.5;" x1="8" x2="879" y1="39" y2="39"/><rect fill="none" height="6" style="stroke:#C82930;stroke-width:1.0;" width="6" x="15" y="49.6484"/><text fill="#000000" font-family="sans-serif" font-size="14" lengthAdjust="spacing" textLength="274" x="27" y="55.9951">database_manager: DataBaseManager</text><rect fill="none" height="6" style="stroke:#C82930;stroke-width:1.0;" width="6" x="15" y="65.9453"/><text fill="#000000" font-family="sans-serif" font-size="14" lengthAdjust="spacing" textLength="209" x="27" y="72.292">authenticator: Authenticator</text><rect fill="none" height="6" style="stroke:#C82930;stroke-width:1.0;" width="6" x="15" y="82.2422"/><text fill="#000000" font-family="sans-serif" font-size="14" lengthAdjust="spacing" textLength="286" x="27" y="88.5889">payment_processor: PaymentProcessor</text><line style="stroke:#181818;stroke-width:0.5;" x1="8" x2="879" y1="95.8906" y2="95.8906"/><ellipse cx="18" cy="109.5391" fill="#84BE84" rx="3" ry="3" style="stroke:#038048;stroke-width:1.0;"/><text fill="#000000" font-family="sans-serif" font-size="14" lengthAdjust="spacing" textLength="847" x="27" y="112.8857">__init__(database_manager: DataBaseManager, authenticator: Authenticator, payment_processor: PaymentProcessor)</text></g><!--link DataBaseManager to Authenticator--><g id="link_DataBaseManager_Authenticator"><path codeLine="23" d="M275.097,261.332 C279.114,279.944 283.885,302.05 287.902,320.662 " fill="none" id="DataBaseManager-Authenticator" style="stroke:#181818;stroke-width:1.0;"/></g><!--link Authenticator to PaymentProcessor--><g id="link_Authenticator_PaymentProcessor"><path codeLine="24" d="M327.735,402.332 C342.33,420.944 359.665,443.0499 374.26,461.6624 " fill="none" id="Authenticator-PaymentProcessor" style="stroke:#181818;stroke-width:1.0;"/></g><!--link OrderManager to DataBaseManager--><g id="link_OrderManager_DataBaseManager"><path codeLine="25" d="M380.099,120.021 C357.482,139.826 336.9959,157.7672 316.2189,175.9612 " fill="none" id="OrderManager-to-DataBaseManager" style="stroke:#181818;stroke-width:1.0;"/><polygon fill="#181818" points="311.705,179.914,321.1111,176.9941,315.4666,176.62,315.8407,170.9756,311.705,179.914" style="stroke:#181818;stroke-width:1.0;"/></g><!--link OrderManager to Authenticator--><g id="link_OrderManager_Authenticator"><path codeLine="26" d="M442.816,120.266 C440.13,161.487 431.737,217.73 407.5,261 C394.6,284.031 378.9796,300.6786 359.2946,316.9766 " fill="none" id="OrderManager-to-Authenticator" style="stroke:#181818;stroke-width:1.0;"/><polygon fill="#181818" points="354.673,320.803,364.1563,318.1445,358.5243,317.6144,359.0544,311.9824,354.673,320.803" style="stroke:#181818;stroke-width:1.0;"/></g><!--link OrderManager to PaymentProcessor--><g id="link_OrderManager_PaymentProcessor"><path codeLine="27" d="M462.973,120.052 C483.779,188.189 509.805,306.41 478.5,402 C471.365,423.786 461.22,440.0815 447.429,457.0962 " fill="none" id="OrderManager-to-PaymentProcessor" style="stroke:#181818;stroke-width:1.0;"/><polygon fill="#181818" points="443.651,461.7574,452.4255,457.2843,446.7994,457.8731,446.2106,452.247,443.651,461.7574" style="stroke:#181818;stroke-width:1.0;"/></g><!--SRC=[ZP5D2i8m44RtEKMMYiq5iX0Kjw8t6COqrA1DIf8kYdXtGqibFwMw2cG-vhsP4KzqZfxGun6TFAF6Hbhw8fGoAepMKdXbD3XlbMuu3MyexIY0qie3R9OpM_8cH8oj3xs_I-sLG6_cnhsJ5kh0l0Kcp-afO3qRWQuuj05qjKP8vxuix1GyvB2W7bUYFXTRIvikOiP3EtqlAGTIF2bF1ny3tMG8tQp82-dKy2UtMeLM_n37oVFxCvRffrSCvK8yMHjZ-s95HI0b5EMSy040]--></g></svg>